<svg width="96" height="55" viewBox="0 0 96 55" fill="none" xmlns="http://www.w3.org/2000/svg">
<rect width="45.1792" height="15.2869" rx="7.64347" transform="matrix(0.853645 -0.50643 0.537973 0.851878 0.972656 23.9111)" fill="#0080FC"/>
<rect width="45.1792" height="15.2869" rx="7.64347" transform="matrix(0.853645 -0.50643 0.537973 0.851878 0.972656 23.9111)" fill="#0080FC"/>
<rect width="45.1792" height="15.2869" rx="7.64347" transform="matrix(0.853645 -0.50643 0.537973 0.851878 0.972656 23.9111)" fill="#0080FC"/>
<rect width="45.1792" height="15.2869" rx="7.64347" transform="matrix(0.853645 -0.50643 0.537973 0.851878 0.972656 23.9111)" fill="#FF281F"/>
<rect width="44.6205" height="14.8834" rx="7.44172" transform="matrix(0.869531 0.507854 -0.508284 0.85285 7.7832 16.897)" fill="#0080FC"/>
<rect width="44.6205" height="14.8834" rx="7.44172" transform="matrix(0.869531 0.507854 -0.508284 0.85285 7.7832 16.897)" fill="#0080FC"/>
<rect width="44.6205" height="14.8834" rx="7.44172" transform="matrix(0.869531 0.507854 -0.508284 0.85285 7.7832 16.897)" fill="#0080FC"/>
<rect width="44.6205" height="14.8834" rx="7.44172" transform="matrix(0.869531 0.507854 -0.508284 0.85285 7.7832 16.897)" fill="#0080FC"/>
<rect width="45.2917" height="15.4406" rx="7.72031" transform="matrix(-0.850397 0.4992 -0.536241 -0.860754 94.7207 30.1733)" fill="#0080FC"/>
<rect width="45.2917" height="15.4406" rx="7.72031" transform="matrix(-0.850397 0.4992 -0.536241 -0.860754 94.7207 30.1733)" fill="#0080FC"/>
<rect width="45.2917" height="15.4406" rx="7.72031" transform="matrix(-0.850397 0.4992 -0.536241 -0.860754 94.7207 30.1733)" fill="#0080FC"/>
<rect width="45.2917" height="15.4406" rx="7.72031" transform="matrix(-0.850397 0.4992 -0.536241 -0.860754 94.7207 30.1733)" fill="#FFB800"/>
<rect width="44.5213" height="14.7302" rx="7.36512" transform="matrix(-0.87269 -0.514767 0.510099 -0.844321 87.959 36.9199)" fill="#0080FC"/>
<rect width="44.5213" height="14.7302" rx="7.36512" transform="matrix(-0.87269 -0.514767 0.510099 -0.844321 87.959 36.9199)" fill="#0080FC"/>
<rect width="44.5213" height="14.7302" rx="7.36512" transform="matrix(-0.87269 -0.514767 0.510099 -0.844321 87.959 36.9199)" fill="#0080FC"/>
<rect width="44.5213" height="14.7302" rx="7.36512" transform="matrix(-0.87269 -0.514767 0.510099 -0.844321 87.959 36.9199)" fill="#009E49"/>
</svg>
