<svg width="30" height="30" viewBox="0 0 30 30" fill="none" xmlns="http://www.w3.org/2000/svg">
<path fill-rule="evenodd" clip-rule="evenodd" d="M13.4182 1.11999C8.86002 1.64031 4.76777 4.45761 2.6192 8.55466C1.9793 9.77488 1.48066 11.2491 1.22203 12.6855C1.10057 13.3601 1.08504 13.625 1.08598 15C1.08691 16.3637 1.10361 16.6455 1.22314 17.3144C1.76027 20.3218 3.13224 22.9084 5.31035 25.0203C7.55051 27.1923 10.4139 28.5428 13.5061 28.8858C14.198 28.9626 15.7945 28.9613 16.5113 28.8835C19.5721 28.5511 22.4532 27.1914 24.6844 25.0263C27.0694 22.7119 28.533 19.7442 28.8838 16.511C28.9631 15.7803 28.9631 14.2197 28.8838 13.4889C28.3677 8.73249 25.3976 4.539 21.0446 2.4206C19.7007 1.76663 18.0043 1.27861 16.5113 1.11648C15.8521 1.04488 14.0586 1.04693 13.4182 1.11999ZM14.092 2.75728C11.8918 2.90031 9.51293 3.78724 7.68908 5.14462C5.63361 6.67439 4.10349 8.80538 3.31992 11.2296C2.19111 14.7219 2.70246 18.5922 4.69758 21.6572C6.65385 24.6625 9.73617 26.6336 13.301 27.1592C14.2023 27.292 15.7995 27.2919 16.6995 27.1589C22.1661 26.3512 26.3176 22.2009 27.1621 16.6992C27.2889 15.8726 27.2889 14.1273 27.1621 13.3008C26.6085 9.69419 24.7113 6.71376 21.7092 4.73482C19.4599 3.25204 16.861 2.57734 14.092 2.75728ZM13.4357 9.25544C13.3325 9.31831 13.2073 9.44874 13.1574 9.54525C13.0516 9.74974 13.0385 10.1473 13.1314 10.331C13.167 10.4014 14.215 11.4807 15.4602 12.7295L17.7243 15L15.4602 17.2705C14.215 18.5193 13.167 19.5986 13.1314 19.669C13.0385 19.8526 13.0516 20.2502 13.1574 20.4547C13.3355 20.7992 13.9018 20.9742 14.257 20.7947C14.439 20.7026 19.5608 15.5894 19.6622 15.3984C19.7085 15.3113 19.7463 15.1321 19.7463 15C19.7463 14.8678 19.7085 14.6886 19.6622 14.6015C19.5608 14.4105 14.439 9.29734 14.257 9.20529C14.0552 9.10327 13.6441 9.12835 13.4357 9.25544ZM10.6232 11.1304C10.52 11.1933 10.3948 11.3237 10.3449 11.4202C10.2391 11.6248 10.226 12.0224 10.3189 12.206C10.3546 12.2764 10.9806 12.9338 11.7101 13.667L13.0364 15L11.7101 16.333C10.9806 17.0661 10.3546 17.7236 10.3189 17.794C10.1392 18.149 10.3143 18.7155 10.6588 18.8936C10.8787 19.0073 11.2654 19.0105 11.4729 18.9003C11.6633 18.7992 14.9018 15.5523 14.9941 15.3701C15.0774 15.2053 15.0774 14.7946 14.9941 14.6299C14.9018 14.4476 11.6633 11.2008 11.4729 11.0996C11.2478 10.9801 10.8459 10.9946 10.6232 11.1304Z" fill="#B3B3B3"/>
</svg>
