<svg width="33" height="33" viewBox="0 0 33 33" fill="none" xmlns="http://www.w3.org/2000/svg">
<g clip-path="url(#clip0_489_1042)">
<path fill-rule="evenodd" clip-rule="evenodd" d="M15.5171 2.89821C13.3383 3.29531 11.5354 4.96155 10.9471 7.12195C10.754 7.83094 10.7402 9.16176 10.9188 9.86121C11.2688 11.232 12.0062 12.3523 13.0794 13.1435C15.1416 14.664 17.8575 14.664 19.9197 13.1435C20.9929 12.3523 21.7303 11.232 22.0802 9.86121C22.2588 9.16176 22.2451 7.83094 22.052 7.12195C21.5176 5.15961 20.1005 3.69981 18.1108 3.06218C17.6507 2.91471 17.4236 2.88306 16.6929 2.86457C16.2143 2.85238 15.6852 2.86753 15.5171 2.89821ZM15.5835 4.86938C14.3401 5.17089 13.2925 6.17017 12.8504 7.47644C12.672 8.00354 12.6827 9.09867 12.8722 9.70278C13.167 10.6425 13.8941 11.4874 14.7865 11.9273C15.9594 12.5053 17.0396 12.5053 18.2125 11.9273C19.1049 11.4874 19.832 10.6425 20.1268 9.70278C20.3163 9.09867 20.3271 8.00354 20.1487 7.47644C19.7013 6.15458 18.6543 5.16535 17.386 4.86635C16.889 4.74917 16.0737 4.75053 15.5835 4.86938ZM5.44581 8.27669C3.91021 8.65922 2.63404 9.94023 2.28206 11.4525C2.22586 11.6939 2.17978 12.1566 2.17958 12.4806C2.17842 14.3568 3.35985 15.9518 5.188 16.542C5.79199 16.7371 6.81673 16.7797 7.41163 16.6347C8.27717 16.4236 9.24719 15.8173 9.76417 15.1644C11.0577 13.5307 11.0444 11.2765 9.73207 9.70485C9.16153 9.02151 8.29419 8.47901 7.45649 8.28153C6.97554 8.16809 5.89208 8.16551 5.44581 8.27669ZM25.5133 8.28456C24.0642 8.63608 22.8303 9.84445 22.4226 11.3114C21.8619 13.3283 22.8587 15.4532 24.7817 16.3401C25.4228 16.6358 25.8455 16.7221 26.6187 16.7148C27.1582 16.7098 27.4 16.6747 27.811 16.542C29.6392 15.9518 30.8206 14.3568 30.8195 12.4806C30.8188 11.3434 30.4552 10.3852 29.7252 9.59669C29.088 8.90853 28.2886 8.4348 27.4566 8.2522C27.0448 8.1619 25.9433 8.18021 25.5133 8.28456ZM5.59998 10.2707C4.97311 10.5286 4.64356 10.829 4.3483 11.4116C3.88334 12.3292 4.10222 13.4705 4.87946 14.1809C5.52908 14.7746 6.47377 14.9491 7.31495 14.6307C7.85249 14.4273 8.43482 13.8439 8.63385 13.3095C8.8122 12.8307 8.83095 12.1546 8.67865 11.6977C8.45938 11.0402 7.7395 10.3475 7.10915 10.1876C6.64477 10.0698 6.00255 10.1052 5.59998 10.2707ZM25.8452 10.1907C25.2428 10.3624 24.5312 11.0658 24.3204 11.6977C24.1681 12.1546 24.1868 12.8307 24.3652 13.3095C24.5642 13.8439 25.1466 14.4273 25.6841 14.6307C26.5253 14.9491 27.47 14.7746 28.1196 14.1809C29.3642 13.0434 29.0566 11.0343 27.5287 10.3221C27.2398 10.1874 27.0557 10.1505 26.6187 10.1398C26.3173 10.1324 25.9693 10.1553 25.8452 10.1907ZM12.5034 14.9574C11.225 15.2913 10.1349 16.0983 9.50062 17.1806C9.39414 17.3623 9.29553 17.4614 9.24178 17.4408C8.91229 17.3143 7.86751 17.2648 6.04567 17.2894C4.19091 17.3144 3.98878 17.3282 3.54444 17.4605C2.70339 17.7109 2.09818 18.0754 1.44714 18.7235C0.803573 19.3642 0.458297 19.9363 0.18276 20.8182C0.0328422 21.2982 0.0317465 21.3249 0.0317465 24.5243C0.0317465 28.0686 0.0340023 28.0929 0.427231 28.7532C0.810469 29.3968 1.44675 29.8792 2.15612 30.0639C2.49759 30.1529 4.09139 30.1639 16.4995 30.1639C31.7752 30.1639 30.8468 30.1867 31.513 29.7963C32.1824 29.4041 32.7197 28.7072 32.8696 28.037C32.9132 27.842 32.9747 27.6322 33.0064 27.5706C33.0886 27.4108 33.0818 21.5086 32.9995 21.5595C32.9621 21.5826 32.9351 21.5194 32.9351 21.4089C32.9351 21.1118 32.6903 20.3852 32.3995 19.8192C32.0335 19.1069 31.1799 18.2536 30.4536 17.8739C29.4656 17.3575 29.2425 17.3202 26.9534 17.2894C25.1315 17.2648 24.0867 17.3143 23.7573 17.4408C23.7035 17.4614 23.6049 17.3623 23.4984 17.1806C22.8576 16.0872 21.7654 15.2844 20.4692 14.954C19.988 14.8314 19.7636 14.8243 16.4731 14.8276C13.2258 14.8309 12.9537 14.8398 12.5034 14.9574ZM12.8557 16.8526C12.1317 17.0814 11.4149 17.6538 11.1179 18.2401C10.7571 18.9523 10.7632 18.8578 10.7632 23.7304V28.2304H16.4995H22.2358V23.7304C22.2358 19.7797 22.2232 19.1876 22.1319 18.8803C21.8302 17.863 21.1289 17.1567 20.1153 16.8491C19.7036 16.7241 13.2522 16.7273 12.8557 16.8526ZM4.29951 19.2716C3.19072 19.4665 2.21445 20.448 1.99892 21.5847C1.96051 21.787 1.93318 23.0893 1.93324 24.7103C1.93331 27.8084 1.93028 27.7851 2.37771 28.084L2.59672 28.2304H5.71316H8.8296V23.7869C8.8296 20.3029 8.8122 19.3321 8.74903 19.2913C8.64017 19.2208 4.68778 19.2033 4.29951 19.2716ZM24.4273 19.2638L24.2017 19.3036L24.1851 23.767L24.1685 28.2304H27.2854H30.4023L30.6213 28.084C31.0688 27.7851 31.0657 27.8084 31.0658 24.7103C31.0659 23.0893 31.0385 21.787 31.0001 21.5847C30.7786 20.4166 29.8042 19.4601 28.6416 19.2698C28.233 19.2029 24.7997 19.198 24.4273 19.2638ZM0.0292972 24.5887C0.0292328 26.2549 0.0376117 26.9457 0.0477953 26.124C0.0579789 25.3022 0.0579789 23.939 0.0477953 23.0947C0.0376117 22.2503 0.0292972 22.9226 0.0292972 24.5887Z" fill="#C7C7C7"/>
</g>
<defs>
<clipPath id="clip0_489_1042">
<rect width="33" height="33" fill="white"/>
</clipPath>
</defs>
</svg>
