<svg width="36" height="40" viewBox="0 0 36 40" fill="none" xmlns="http://www.w3.org/2000/svg">
<g filter="url(#filter0_d_489_1043)">
<path fill-rule="evenodd" clip-rule="evenodd" d="M17.5584 0.0344382C17.1591 0.144725 16.8958 0.301742 16.5572 0.631665C16.019 1.15601 15.7039 1.25692 15.193 1.06856C14.7526 0.906163 14.1191 0.935001 13.6772 1.13756C13.0657 1.41794 12.7004 1.90657 12.4773 2.74257C12.3533 3.20755 12.1149 3.45108 11.6597 3.57776C10.8483 3.80365 10.3625 4.17974 10.0946 4.78948C9.8925 5.24933 9.87113 5.73383 10.0259 6.34338C10.1782 6.94324 10.1094 7.17545 9.62053 7.71231C9.12086 8.26093 8.99464 8.56658 8.99072 9.23712C8.98809 9.70004 9.00995 9.81333 9.15957 10.1127C9.25412 10.3017 9.47827 10.6137 9.6577 10.8058C10.1054 11.2852 10.176 11.5395 10.0259 12.1309C9.686 13.4695 10.2892 14.546 11.5567 14.8627C11.907 14.9502 12.2316 15.1366 12.2861 15.2816C12.3088 15.3421 11.8945 16.2286 11.2204 17.5613C10.4795 19.0261 10.1176 19.8062 10.1176 19.9379C10.1176 20.2105 10.2875 20.4763 10.5399 20.5988C10.7481 20.6996 10.784 20.6949 11.9818 20.4109C12.6575 20.2506 13.2413 20.1201 13.2793 20.1208C13.3172 20.1214 13.5505 20.6357 13.7976 21.2636C14.3089 22.5625 14.4805 22.8119 14.8635 22.8119C15.3151 22.8119 15.3823 22.7229 16.2802 20.9374C16.7393 20.0244 17.2099 19.0945 17.326 18.8708L17.537 18.4642H18.0242H18.5115L19.5231 20.4787C20.6223 22.6677 20.723 22.8119 21.1518 22.8119C21.5592 22.8119 21.7211 22.5816 22.2405 21.2636C22.488 20.6357 22.7208 20.1214 22.7578 20.1208C22.7948 20.1201 23.3779 20.2506 24.0536 20.4109C25.2788 20.7014 25.2826 20.7019 25.5107 20.5913C25.7681 20.4665 25.9178 20.2237 25.9178 19.931C25.9178 19.7976 25.5589 19.0251 24.8093 17.545L23.7009 15.3563L23.8737 15.172C23.9813 15.0573 24.1744 14.952 24.3851 14.893C25.2162 14.6605 25.6607 14.3101 25.9521 13.6578C26.1453 13.2256 26.172 12.5681 26.0145 12.1225C25.8303 11.6011 25.929 11.2787 26.4405 10.7308C26.9104 10.2276 27.0416 9.90166 27.0416 9.23712C27.0416 8.57258 26.9104 8.2466 26.4405 7.7434C25.929 7.19559 25.8303 6.87317 26.0145 6.35177C26.0677 6.20119 26.1121 5.87627 26.1132 5.62968C26.1175 4.62946 25.482 3.85457 24.4544 3.60716C23.9871 3.49469 23.6794 3.19723 23.5564 2.73913C23.3267 1.88336 22.9856 1.4307 22.3454 1.1323C21.9223 0.935001 21.2786 0.907726 20.8424 1.06856C20.3314 1.25698 20.0164 1.15601 19.4777 0.631164C19.2829 0.441368 18.9979 0.229302 18.8443 0.159926C18.5379 0.021489 17.8488 -0.0457592 17.5584 0.0344382ZM17.5891 1.01689C17.4713 1.06912 17.237 1.25567 17.0686 1.43157C16.4914 2.03406 15.8216 2.21359 14.9813 1.99114C14.1166 1.76219 13.61 2.03274 13.4201 2.82508C13.1919 3.77663 12.672 4.30767 11.7405 4.54076C10.9648 4.73481 10.6999 5.25227 10.9241 6.13551C11.1419 6.99403 10.9661 7.67803 10.3759 8.26793C9.89256 8.75106 9.76849 9.17425 9.96752 9.66094C10.0198 9.78862 10.2035 10.034 10.3759 10.2063C10.9661 10.7962 11.1419 11.4802 10.9241 12.3387C10.6999 13.222 10.9648 13.7394 11.7405 13.9335C12.672 14.1666 13.1919 14.6976 13.4201 15.6492C13.61 16.4415 14.1166 16.7121 14.9813 16.4831C15.8218 16.2606 16.4914 16.4402 17.0689 17.043C17.7294 17.7325 18.2991 17.7273 18.9976 17.0254C19.5973 16.4227 20.2128 16.2603 21.0541 16.4831C21.916 16.7114 22.434 16.4405 22.6123 15.6684C22.8361 14.6985 23.3643 14.159 24.3138 13.9304C25.07 13.7483 25.3414 13.2024 25.1137 12.3213C24.895 11.4746 25.0538 10.849 25.6422 10.238C26.3354 9.51837 26.3354 8.95587 25.6422 8.23622C25.0538 7.62523 24.895 6.9996 25.1137 6.1529C25.3414 5.27179 25.07 4.72599 24.3138 4.54388C23.3643 4.31524 22.8361 3.77569 22.6123 2.80581C22.434 2.03374 21.916 1.76287 21.0541 1.99114C20.2128 2.21391 19.5973 2.05157 18.9976 1.44884C18.487 0.935689 18.0647 0.806197 17.5891 1.01689ZM17.1603 2.89396C15.1039 3.27849 13.5771 4.3275 12.6079 6.02191C12.1509 6.82075 11.7866 7.98024 11.8984 8.28044C12.0222 8.61306 12.315 8.70258 12.5807 8.48907C12.6908 8.40055 12.7629 8.23985 12.8405 7.91042C13.3283 5.83774 15.0196 4.24374 17.1421 3.85626C17.7368 3.74767 18.8972 3.80784 19.4569 3.97625C21.212 4.50441 22.5515 5.84944 23.1386 7.67321C23.298 8.16853 23.3098 8.27563 23.3098 9.23712C23.3098 10.1986 23.298 10.3057 23.1386 10.801C22.5515 12.6248 21.212 13.9698 19.4569 14.498C18.8972 14.6664 17.7368 14.7266 17.1421 14.618C15.769 14.3673 14.5796 13.6325 13.7485 12.5213C13.3351 11.9686 12.9067 10.9998 12.7885 10.3502C12.6906 9.81189 12.069 9.68847 11.9031 10.1744C11.8524 10.323 11.8649 10.4667 11.9614 10.843C12.4678 12.8176 13.8605 14.4321 15.6905 15.1659C16.5534 15.5119 16.9748 15.5868 18.0483 15.5849C18.9203 15.5834 19.0936 15.5648 19.6223 15.4152C20.7428 15.0982 21.6072 14.5836 22.4295 13.7436C23.5851 12.5631 24.1723 11.207 24.2452 9.5499C24.3292 7.63974 23.7373 6.06932 22.4287 4.73061C21.6157 3.89899 20.7444 3.37702 19.6542 3.06855C19.1973 2.93925 18.9197 2.90459 18.2014 2.88701C17.713 2.87513 17.2445 2.87826 17.1603 2.89396ZM17.7421 5.08143C17.6411 5.13498 17.5358 5.20142 17.5083 5.22913C17.4808 5.25678 17.2838 5.75473 17.0704 6.33556L16.6825 7.3917L15.5588 7.45964C14.9407 7.49699 14.3885 7.54866 14.3316 7.57437C14.1613 7.65131 14.0203 7.92925 14.0203 8.1878C14.0203 8.48926 14.1117 8.59116 15.1056 9.3972L15.8519 10.0025L15.557 11.1049C15.2242 12.3486 15.2276 12.5194 15.5897 12.7449C15.9358 12.9605 16.0785 12.9125 17.0839 12.2421L18.0181 11.6194L18.968 12.2505C19.8617 12.8442 19.9328 12.8796 20.1668 12.8475C20.4602 12.8073 20.6224 12.6744 20.7104 12.402C20.7644 12.235 20.7314 12.0432 20.4988 11.1741C20.3472 10.6077 20.2243 10.102 20.2257 10.0504C20.2272 9.99874 20.5968 9.66094 21.0471 9.29968C21.4975 8.93841 21.9012 8.57802 21.9442 8.49883C22.104 8.20487 21.9727 7.69892 21.7038 7.57249C21.6469 7.54572 21.0946 7.49411 20.4766 7.45776L19.3528 7.3917L18.9735 6.35883C18.7649 5.79076 18.5752 5.2945 18.5519 5.25603C18.501 5.17195 18.1243 4.98316 18.0084 4.98366C17.963 4.98391 17.8432 5.02788 17.7421 5.08143ZM17.7186 7.23531C17.57 7.65063 17.3852 8.05199 17.3048 8.13412C17.129 8.31372 16.8857 8.35977 16.1075 8.36064C15.7811 8.36102 15.4985 8.38691 15.4796 8.41819C15.4607 8.44947 15.6931 8.67699 15.9961 8.92377C16.907 9.66582 16.9063 9.66376 16.5845 10.8205C16.4565 11.2807 16.4068 11.5484 16.4527 11.5304C16.4933 11.5145 16.8233 11.3017 17.186 11.0575C17.5996 10.779 17.9083 10.6134 18.0135 10.6134C18.1176 10.6134 18.4538 10.7913 18.8996 11.0825C19.2948 11.3406 19.6267 11.5517 19.6375 11.5517C19.6481 11.5517 19.5645 11.221 19.4517 10.8167C19.1295 9.66232 19.1284 9.66588 20.0429 8.92083C20.3479 8.67242 20.5751 8.44778 20.5477 8.4217C20.5203 8.39555 20.1471 8.36296 19.7183 8.34932C18.9633 8.32523 18.933 8.31892 18.76 8.14964C18.6378 8.03003 18.4973 7.73971 18.3148 7.22993C18.1683 6.82019 18.0345 6.48495 18.0177 6.48495C18.0008 6.48495 17.8662 6.82263 17.7186 7.23531ZM11.9948 18.0713C11.5735 18.906 11.2363 19.5965 11.2456 19.606C11.2549 19.6155 11.7283 19.5105 12.2976 19.3728C13.4608 19.0914 13.5422 19.0829 13.7945 19.2162C14.0037 19.3267 14.0772 19.467 14.5568 20.6701C14.8609 21.4333 14.9229 21.5464 14.9851 21.4521C15.0251 21.3914 15.4334 20.5936 15.8924 19.679L16.7268 18.0162L16.469 17.7584C16.1972 17.4866 15.8546 17.3069 15.6083 17.3069C15.5273 17.3069 15.3403 17.3514 15.193 17.4057C14.4626 17.6751 13.5427 17.4422 13.0284 16.8579L12.7608 16.5539L11.9948 18.0713ZM23.0089 16.8581C22.495 17.4467 21.7385 17.6376 20.8539 17.4021C20.2929 17.2526 20.0266 17.3214 19.6041 17.7252L19.3075 18.0086L20.1134 19.6126C20.5567 20.4948 20.9657 21.2955 21.0222 21.3919L21.1251 21.5671L21.4446 20.7663C21.9725 19.4436 22.0324 19.3263 22.2349 19.2193C22.4942 19.0823 22.5712 19.0901 23.7393 19.3716C24.3096 19.5091 24.7872 19.6215 24.8007 19.6215C24.83 19.6215 23.348 16.6663 23.2923 16.6137C23.2712 16.5938 23.1436 16.7037 23.0089 16.8581ZM4.99522 19.6186C4.67119 19.6976 4.36805 19.9308 4.19192 20.2369L4.02406 20.5286L4.0047 25.1577C3.99135 28.3475 4.00617 29.8853 4.05235 30.1033C4.13466 30.4914 4.41631 30.8565 4.7546 31.0135C4.96325 31.1102 5.16321 31.1294 5.97974 31.1305C6.8523 31.1318 6.98415 31.1177 7.22538 30.9985C7.53226 30.8467 7.83032 30.4671 7.88765 30.1549C7.90902 30.0385 7.93511 29.9433 7.9457 29.9433C7.95624 29.9433 9.03923 30.3512 10.3524 30.8497C11.6656 31.3482 12.9009 31.8046 13.0976 31.8637C13.415 31.9593 13.8783 31.9737 17.2168 31.9927C21.213 32.0153 21.4768 32.0011 22.3007 31.7195C22.8412 31.5347 31.1397 26.7858 31.4987 26.4558C31.8199 26.1606 31.9992 25.6962 32 25.1577C32.0019 23.8227 30.7885 22.9763 29.5254 23.4317C29.3432 23.4974 27.6259 24.2574 25.7091 25.1207C23.7923 25.984 22.2039 26.6904 22.1793 26.6904C22.1548 26.6904 22.1163 26.5642 22.0936 26.4099C21.989 25.6975 21.3487 24.8308 20.6659 24.4773C20.2267 24.2499 20.1102 24.2298 17.3747 23.9072C16.0273 23.7484 14.762 23.5758 14.5629 23.5236C14.17 23.4207 13.6914 23.1886 12.8632 22.6993C11.4772 21.8804 10.1719 21.472 8.6937 21.3946L7.91288 21.3537L7.91153 20.9725C7.90908 20.275 7.52847 19.7578 6.91948 19.6244C6.58339 19.5507 5.28973 19.5469 4.99522 19.6186ZM5.0624 20.6509L4.91205 20.8044V25.3599C4.91205 29.3818 4.9232 29.9317 5.00741 30.0545C5.09804 30.1868 5.14361 30.1935 5.94134 30.1926C6.40255 30.192 6.82125 30.1649 6.87178 30.1324C6.94992 30.082 6.96823 29.7166 6.99426 27.688L7.02488 25.3029L7.16947 25.1834C7.36526 25.0216 7.6172 25.032 7.77974 25.2087C7.91 25.3504 7.91288 25.3919 7.91288 27.1381V28.9227L10.3472 29.8502C11.6861 30.3604 12.9469 30.8358 13.149 30.9067C13.5016 31.0304 13.667 31.0364 17.2489 31.0556C21.3546 31.0776 21.5731 31.0624 22.3352 30.7002C22.9901 30.3891 30.7831 25.8745 30.893 25.7426C30.9515 25.6723 31.032 25.5039 31.0718 25.3682C31.1339 25.1566 31.1273 25.0804 31.0251 24.8284C30.9509 24.6457 30.8259 24.4795 30.6932 24.3874C30.2666 24.0912 30.2153 24.1093 25.826 26.1025L21.8453 27.9102L19.9774 27.9302C17.2384 27.9594 14.7496 27.7579 14.4828 27.4853C14.3233 27.3224 14.3488 26.9502 14.5297 26.8006C14.6937 26.665 14.6847 26.6647 15.9355 26.8519C16.3783 26.9181 17.2985 26.9592 18.8904 26.9839L21.2022 27.0197V26.7422C21.2022 26.1544 20.6485 25.4259 20.0491 25.2251C19.8918 25.1724 18.6745 25.002 17.344 24.8465C16.0136 24.6909 14.7734 24.5323 14.5882 24.4939C14.0315 24.3787 13.5013 24.1466 12.585 23.6174C12.1064 23.3409 11.5158 23.0293 11.2725 22.9249C10.5352 22.6084 9.50889 22.3747 8.66394 22.331L7.91288 22.2921V22.8989C7.91288 23.4597 7.90149 23.5173 7.76253 23.6592C7.59583 23.8295 7.50042 23.8461 7.27946 23.7433C7.02274 23.6239 6.99426 23.4528 6.99426 22.0305C6.99426 20.3869 7.06824 20.4973 5.96736 20.4973C5.24778 20.4973 5.20571 20.5044 5.0624 20.6509Z" fill="#D8D8D8"/>
</g>
<defs>
<filter id="filter0_d_489_1043" x="0" y="0" width="36" height="40" filterUnits="userSpaceOnUse" color-interpolation-filters="sRGB">
<feFlood flood-opacity="0" result="BackgroundImageFix"/>
<feColorMatrix in="SourceAlpha" type="matrix" values="0 0 0 0 0 0 0 0 0 0 0 0 0 0 0 0 0 0 127 0" result="hardAlpha"/>
<feOffset dy="4"/>
<feGaussianBlur stdDeviation="2"/>
<feComposite in2="hardAlpha" operator="out"/>
<feColorMatrix type="matrix" values="0 0 0 0 0 0 0 0 0 0 0 0 0 0 0 0 0 0 0.25 0"/>
<feBlend mode="normal" in2="BackgroundImageFix" result="effect1_dropShadow_489_1043"/>
<feBlend mode="normal" in="SourceGraphic" in2="effect1_dropShadow_489_1043" result="shape"/>
</filter>
</defs>
</svg>
