<svg width="396" height="231" viewBox="0 0 396 231" fill="none" xmlns="http://www.w3.org/2000/svg">
<path d="M41.463 207.417H19.4077L19.5528 196.027H41.463C49.0082 196.027 55.2959 194.455 60.326 191.311C65.3562 188.119 69.1288 183.669 71.6439 177.962C74.2073 172.206 75.489 165.483 75.489 157.793V151.336C75.489 145.29 74.7635 139.921 73.3125 135.229C71.8615 130.49 69.7334 126.499 66.9281 123.259C64.1228 119.97 60.6888 117.479 56.626 115.786C52.6115 114.093 47.9925 113.247 42.7689 113.247H18.9724V101.784H42.7689C49.6853 101.784 55.9972 102.945 61.7045 105.266C67.4118 107.539 72.321 110.853 76.4322 115.206C80.5917 119.51 83.784 124.734 86.0088 130.876C88.2337 136.971 89.3461 143.839 89.3461 151.481V157.793C89.3461 165.435 88.2337 172.327 86.0088 178.469C83.784 184.564 80.5676 189.763 76.3597 194.068C72.2001 198.372 67.17 201.686 61.2692 204.007C55.4168 206.28 48.8147 207.417 41.463 207.417ZM26.8804 101.784V207.417H12.8782V101.784H26.8804ZM140.929 208.868C135.464 208.868 130.506 207.949 126.057 206.111C121.655 204.225 117.858 201.589 114.666 198.203C111.522 194.817 109.104 190.803 107.411 186.16C105.718 181.517 104.872 176.438 104.872 170.924V167.877C104.872 161.493 105.815 155.81 107.701 150.828C109.588 145.798 112.151 141.541 115.392 138.059C118.632 134.577 122.308 131.941 126.419 130.151C130.531 128.361 134.787 127.467 139.188 127.467C144.799 127.467 149.635 128.434 153.698 130.369C157.809 132.303 161.171 135.012 163.783 138.494C166.395 141.928 168.329 145.991 169.587 150.683C170.844 155.326 171.473 160.404 171.473 165.918V171.94H112.852V160.985H158.051V159.969C157.858 156.487 157.132 153.101 155.875 149.812C154.666 146.523 152.731 143.815 150.071 141.686C147.411 139.558 143.783 138.494 139.188 138.494C136.141 138.494 133.336 139.147 130.772 140.453C128.209 141.711 126.008 143.597 124.17 146.112C122.332 148.627 120.906 151.698 119.89 155.326C118.874 158.953 118.366 163.137 118.366 167.877V170.924C118.366 174.648 118.874 178.155 119.89 181.444C120.954 184.685 122.477 187.538 124.46 190.005C126.492 192.472 128.934 194.406 131.788 195.809C134.69 197.212 137.979 197.913 141.655 197.913C146.395 197.913 150.409 196.946 153.698 195.011C156.987 193.076 159.865 190.489 162.332 187.248L170.457 193.705C168.764 196.268 166.612 198.711 164 201.033C161.389 203.354 158.172 205.24 154.351 206.691C150.579 208.142 146.105 208.868 140.929 208.868ZM201.726 95.9798V207.417H188.232V95.9798H201.726ZM256.139 128.918V139.22H213.697V128.918H256.139ZM228.062 109.837H241.484V187.974C241.484 190.634 241.895 192.641 242.717 193.995C243.54 195.349 244.604 196.244 245.91 196.68C247.215 197.115 248.618 197.333 250.118 197.333C251.23 197.333 252.391 197.236 253.6 197.042C254.857 196.8 255.801 196.607 256.429 196.462L256.502 207.417C255.438 207.756 254.035 208.07 252.294 208.36C250.601 208.699 248.546 208.868 246.127 208.868C242.838 208.868 239.815 208.215 237.058 206.909C234.302 205.603 232.101 203.427 230.456 200.38C228.86 197.284 228.062 193.125 228.062 187.901V109.837ZM318.17 193.995V153.585C318.17 150.489 317.541 147.805 316.283 145.532C315.074 143.21 313.236 141.42 310.77 140.163C308.303 138.905 305.256 138.277 301.628 138.277C298.242 138.277 295.268 138.857 292.704 140.018C290.189 141.179 288.206 142.702 286.755 144.588C285.353 146.475 284.651 148.506 284.651 150.683H271.23C271.23 147.877 271.955 145.096 273.406 142.339C274.857 139.583 276.937 137.092 279.645 134.867C282.402 132.593 285.691 130.804 289.512 129.498C293.382 128.144 297.686 127.467 302.426 127.467C308.134 127.467 313.164 128.434 317.517 130.369C321.918 132.303 325.352 135.229 327.819 139.147C330.334 143.017 331.591 147.877 331.591 153.73V190.295C331.591 192.907 331.809 195.688 332.244 198.638C332.728 201.589 333.429 204.128 334.348 206.256V207.417H320.346C319.669 205.869 319.137 203.814 318.75 201.25C318.363 198.638 318.17 196.22 318.17 193.995ZM320.491 159.824L320.636 169.256H307.069C303.248 169.256 299.839 169.57 296.84 170.199C293.841 170.779 291.326 171.674 289.295 172.883C287.263 174.092 285.715 175.616 284.651 177.454C283.587 179.243 283.055 181.347 283.055 183.766C283.055 186.232 283.612 188.481 284.724 190.513C285.836 192.544 287.505 194.164 289.73 195.374C292.003 196.534 294.784 197.115 298.073 197.115C302.184 197.115 305.812 196.244 308.956 194.503C312.1 192.762 314.59 190.634 316.428 188.119C318.315 185.604 319.33 183.161 319.476 180.791L325.207 187.248C324.868 189.279 323.949 191.528 322.45 193.995C320.951 196.462 318.944 198.832 316.428 201.105C313.962 203.33 311.011 205.192 307.577 206.691C304.192 208.142 300.371 208.868 296.114 208.868C290.794 208.868 286.127 207.828 282.112 205.748C278.146 203.669 275.051 200.887 272.826 197.405C270.649 193.874 269.561 189.932 269.561 185.579C269.561 181.371 270.383 177.671 272.028 174.479C273.672 171.239 276.042 168.554 279.138 166.426C282.233 164.25 285.957 162.605 290.31 161.493C294.663 160.38 299.524 159.824 304.893 159.824H320.491Z" fill="url(#paint0_radial_210_1006)"/>
<path d="M176.433 30.8136C177.909 22.0005 188.372 18.0904 195.266 23.7755L206.173 32.7696C213.068 38.4547 211.222 49.471 202.852 52.5991L189.609 57.5479C181.239 60.6759 172.621 53.5696 174.097 44.7566L176.433 30.8136Z" fill="url(#paint1_linear_210_1006)"/>
<defs>
<radialGradient id="paint0_radial_210_1006" cx="0" cy="0" r="1" gradientUnits="userSpaceOnUse" gradientTransform="translate(-4.91424 -4.69986) rotate(53.2166) scale(294.813 3940.52)">
<stop stop-color="white"/>
<stop offset="0.685" stop-color="#439DF4"/>
<stop offset="0.755" stop-color="#007EF8"/>
<stop offset="0.9999" stop-color="#55A6F5"/>
<stop offset="1" stop-color="#8FC7FD"/>
</radialGradient>
<linearGradient id="paint1_linear_210_1006" x1="179.754" y1="10.9842" x2="201.722" y2="69.7699" gradientUnits="userSpaceOnUse">
<stop offset="0.04" stop-color="#FFB800"/>
<stop offset="0.155" stop-color="#E01E93"/>
<stop offset="0.539" stop-color="#7A4AC1"/>
<stop offset="1" stop-color="#007EF8"/>
</linearGradient>
</defs>
</svg>
